<?xml version="1.0" encoding="utf-8"?>
<!-- Generator: Adobe Illustrator 21.0.2, SVG Export Plug-In . SVG Version: 6.00 Build 0)  -->
<svg version="1.1" id="Capa_1" xmlns="http://www.w3.org/2000/svg" xmlns:xlink="http://www.w3.org/1999/xlink" x="0px" y="0px"
	 viewBox="0 0 1984.25 2834.65" enable-background="new 0 0 1984.25 2834.65" xml:space="preserve">
<g>
	<path fill="#03ACEC" d="M1049.99,1383.654c-0.79,2.293-2.364,4.214-4.223,5.437c-5.519,3.633-6.272,8.887-6.751,14.932
		c-3.816,48.18-56.942,76.459-99.118,52.927c-0.813-0.454-1.58-0.99-3.581-2.254c12.838,0.316,23.585-2.106,33.518-9.65
		c-10.032-1.899-17.304-6.531-20.799-15.969c2.376-1.344,4.926,0.395,7.426-1.592c-9.622-4.633-15.706-11.545-16.016-22.658
		c3.008,0.058,5.242,2.109,8.188,1.723c0.007-1.779-1.493-2.436-2.332-3.472c-5.562-6.869-6.992-14.527-4.564-22.986
		c0.967-3.368,1.718-5.097,5.11-1.383c10.588,11.589,23.857,18.401,39.376,20.925c4.161,0.677,6.106,0.34,5.902-4.953
		c-0.358-9.254,4.236-16.373,12.416-20.689c8.148-4.3,16.778-4.337,24.081,1.263c4.44,3.405,7.977,2.795,12.219,1.072
		c1.845-0.749,3.671-1.543,6.252-2.632c-0.689,5.062-3.686,7.873-7.039,10.737c3.715,1.955,6.701-1.917,10.027-0.718
		L1049.99,1383.654z"/>
	<path fill="#03ACEC" d="M1050.083,1383.714c0.072-0.208,0.144-0.417,0.217-0.625c0.023,0.092,0.095,0.225,0.059,0.267
		c-0.1,0.119-0.244,0.2-0.37,0.297C1049.99,1383.654,1050.083,1383.714,1050.083,1383.714z"/>
</g>
</svg>
