<?xml version="1.0" encoding="utf-8"?>
<!-- Generator: Adobe Illustrator 21.0.2, SVG Export Plug-In . SVG Version: 6.00 Build 0)  -->
<svg version="1.1" id="Capa_1" xmlns="http://www.w3.org/2000/svg" xmlns:xlink="http://www.w3.org/1999/xlink" x="0px" y="0px"
	 viewBox="0 0 1984.25 2834.65" enable-background="new 0 0 1984.25 2834.65" xml:space="preserve">
<g>
	<path fill="#03ACEC" d="M1511.453,1049.809c-7.239,21.023-21.673,38.629-38.716,49.849c-50.594,33.309-57.5,81.471-61.89,136.888
		c-34.986,441.697-522.028,700.958-908.69,485.219c-7.456-4.16-14.488-9.079-32.834-20.663
		c117.695,2.898,216.22-19.306,307.283-88.472c-91.97-17.405-158.639-59.871-190.676-146.4
		c21.778-12.317,45.162,3.617,68.079-14.593c-88.211-42.47-143.992-105.841-146.83-207.723
		c27.577,0.535,48.059,19.338,75.068,15.798c0.06-16.31-13.687-22.332-21.376-31.827c-50.989-62.969-64.101-133.183-41.839-210.727
		c8.865-30.879,15.75-46.726,46.85-12.683c97.064,106.249,218.716,168.699,360.985,191.836c38.143,6.203,55.979,3.117,54.104-45.406
		c-3.279-84.833,38.838-150.1,113.826-189.673c74.698-39.421,153.811-39.763,220.768,11.582
		c40.706,31.215,73.127,25.62,112.024,9.826c16.912-6.867,33.656-14.149,57.32-24.129c-6.317,46.409-33.791,72.174-64.531,98.435
		c34.058,17.92,61.433-17.573,91.928-6.585L1511.453,1049.809z"/>
	<path fill="#03ACEC" d="M1512.309,1050.358c0.662-1.91,1.324-3.82,1.986-5.729c0.209,0.842,0.87,2.062,0.542,2.452
		c-0.915,1.088-2.239,1.833-3.393,2.72C1511.453,1049.809,1512.309,1050.358,1512.309,1050.358z"/>
</g>
</svg>
